<svg viewBox="0 0 13 15" fill="none" xmlns="http://www.w3.org/2000/svg"><path d="M10.83 6.56V3.75c0-1-.46-1.95-1.27-2.65A4.7 4.7 0 006.5 0a4.7 4.7 0 00-3.06 1.1 3.52 3.52 0 00-1.27 2.65v2.81c-.58 0-1.13.2-1.53.55-.41.35-.64.83-.64 1.33v4.69c0 .5.23.97.63 1.32.4.35.96.55 1.53.55h8.67c.58 0 1.13-.2 1.53-.55.41-.35.64-.83.64-1.33V8.44c0-.5-.24-.97-.64-1.32-.4-.35-.96-.55-1.53-.55v-.01zm-3.75 4.55v1.55c0 .12-.06.24-.16.33a.59.59 0 01-.39.14.59.59 0 01-.38-.14.44.44 0 01-.16-.33v-1.55a.99.99 0 01-.4-.33.81.81 0 01-.14-.46.82.82 0 01.03-.37.9.9 0 01.2-.33c.09-.1.2-.18.33-.24a1.21 1.21 0 011.21.1c.11.08.2.18.27.3.07.1.1.23.12.35v.19c0 .16-.05.32-.15.46a.99.99 0 01-.4.33h.02zm1.58-4.55H4.34V3.75c.04-.47.29-.92.69-1.24.4-.32.93-.5 1.48-.5.54 0 1.07.18 1.47.5.4.32.65.77.7 1.24v2.81h-.02z" fill="#000"/></svg>