<svg width="32" height="32" fill="none" xmlns="http://www.w3.org/2000/svg"><rect width="32" height="32" rx="4" fill="#000"/><path d="M12.85 12h.321c1.238.077 2.21.475 2.825 1.295.625-.823 1.597-1.224 2.842-1.295h.307c2.762.225 4.02 2.607 6.226 3.62.342.187.715.281 1.092.274.565-.074.926-.763.853-1.531-.078-.823-.748-1.54-1.496-1.144-.098.055-.188.13-.267.22-.057.062-.12.227-.267.166-.137-.137 0-.337.07-.452.136-.29.34-.523.587-.67.247-.146.525-.2.798-.154 1.284.11 2.433 1.466 2.237 3.519-.438 3.054-2.76 3.878-5.511 4.152h-.897c-2.401-.118-4.705-1.178-6.56-3.019-1.868 1.836-4.18 2.895-6.59 3.019h-.88c-2.773-.294-5.117-1.098-5.525-4.243-.156-2.24.953-3.34 2.239-3.452.275-.047.555.006.805.153.25.146.457.38.595.67.064.126.182.321.07.472-.139.03-.207-.101-.266-.167a.932.932 0 00-.294-.247.784.784 0 00-.35-.091c-.88-.038-1.386 1.139-1.035 2.088.07.185.176.345.31.466a.907.907 0 00.459.226c.376.003.749-.09 1.092-.274.307-.142.602-.316.883-.522C9.199 13.91 10.51 12.25 12.85 12z" fill="#fff"/></svg>