<svg viewBox="0 0 13 13" fill="none" xmlns="http://www.w3.org/2000/svg"><path d="M12.79 11.14a2.75 2.75 0 00-.94-1.43c-.92-.58-1.9-1.03-2.93-1.33a4.27 4.27 0 01-.7-.26.92.92 0 01-.31-.6V7.1a8.14 8.14 0 001.15-4.2 2.64 2.64 0 00-.4-1.86 2.4 2.4 0 00-.67-.66 2.24 2.24 0 00-.85-.34 2.26 2.26 0 00-.64 0 2.19 2.19 0 00-1.76.42 2.59 2.59 0 00-.95 2.44c.03 1.55.5 3.05 1.33 4.3v.25a.9.9 0 01-.31.6c-.23.13-.46.24-.7.32-1.03.3-2 .74-2.93 1.3-.45.37-.78.89-.94 1.47-.17.6-.25 1.23-.24 1.86h13a6.3 6.3 0 00-.21-1.86z" fill="#000"/></svg>